<svg version="1.0" xmlns="http://www.w3.org/2000/svg"
 width="233.000000pt" height="179.000000pt" viewBox="0 0 233.000000 179.000000"
 preserveAspectRatio="xMidYMid meet">

<g transform="translate(0.000000,179.000000) scale(0.100000,-0.100000)"
fill="#000000" stroke="none">
<path d="M278 1678 c-3 -37 -6 -43 -23 -40 -60 10 -60 10 -65 -43 -5 -54 -2
-52 -72 -38 -25 5 -27 2 -32 -38 -3 -24 -10 -260 -16 -524 -5 -264 -13 -540
-16 -612 l-6 -133 23 -9 c13 -4 146 -25 294 -46 149 -20 390 -55 537 -76 l268
-40 232 35 c128 20 270 40 315 45 175 22 529 74 551 82 23 9 23 11 18 122 -3
61 -11 339 -17 617 -6 278 -14 521 -18 540 -8 37 -18 41 -73 25 -28 -7 -28 -7
-28 43 0 55 -16 70 -51 52 -28 -16 -39 -4 -39 41 0 31 -4 39 -18 39 -10 0
-191 -59 -402 -131 -459 -156 -457 -156 -512 -142 -38 10 -491 162 -720 242
-119 42 -126 41 -130 -11z m267 -84 c105 -36 224 -77 265 -90 41 -13 132 -43
202 -66 l128 -43 0 -627 c0 -346 -1 -628 -2 -628 -4 0 -218 73 -538 182 -151
52 -285 100 -298 107 -21 11 -22 17 -17 84 3 40 9 241 15 447 17 655 20 700
39 700 9 0 102 -30 206 -66z m1479 -136 c3 -112 11 -336 16 -498 5 -162 12
-345 15 -407 5 -109 4 -113 -17 -124 -22 -12 -448 -160 -688 -239 -63 -21
-123 -41 -133 -45 -16 -7 -17 25 -15 621 l3 629 80 27 c44 14 217 73 385 131
168 58 314 105 326 106 20 1 21 -4 28 -201z m-1757 120 c5 -8 6 -98 1 -228
-30 -764 -34 -936 -26 -946 5 -7 74 -33 153 -59 80 -26 142 -51 140 -55 -5 -9
-45 0 -217 45 l-108 28 0 101 c0 216 21 1109 26 1117 7 13 20 11 31 -3z m1834
10 c3 -15 28 -960 29 -1074 l0 -151 -147 -38 c-82 -20 -156 -39 -165 -42 -10
-2 -18 0 -18 5 0 5 64 30 143 56 78 27 147 52 153 57 7 6 10 48 7 127 -31 795
-39 1039 -35 1050 3 10 31 18 33 10z m-1923 -101 c7 -8 7 -123 1 -367 -5 -195
-10 -454 -11 -574 l-3 -219 160 -40 c88 -22 171 -45 185 -50 47 -20 -4 -19
-126 2 -66 11 -151 23 -191 27 -39 4 -76 10 -82 13 -8 5 -8 102 -2 347 6 186
13 459 17 607 6 245 8 267 24 267 10 0 22 -6 28 -13z m2032 -49 c0 -35 7 -308
15 -608 10 -376 11 -546 4 -551 -6 -3 -43 -9 -82 -13 -40 -4 -126 -16 -191
-27 -129 -22 -205 -23 -131 -2 22 6 110 29 195 51 l155 39 -3 324 c-2 178 -7
436 -11 574 -5 137 -6 255 -4 262 3 7 16 13 29 13 23 0 24 -3 24 -62z"/>
<path d="M426 1522 c-3 -3 -6 -94 -6 -203 l0 -197 73 -26 c110 -38 254 -86
261 -86 3 0 5 91 4 203 l-3 202 -80 26 c-44 15 -117 40 -162 57 -45 16 -84 28
-87 24z m199 -76 l120 -44 3 -186 c2 -145 0 -186 -10 -186 -7 0 -76 22 -153
48 l-140 47 -3 189 -2 188 32 -6 c18 -4 87 -26 153 -50z"/>
<path d="M870 1351 c8 -5 43 -16 77 -25 34 -9 70 -19 80 -23 13 -4 15 -3 8 5
-5 6 -44 20 -85 31 -80 22 -104 26 -80 12z"/>
<path d="M850 1285 c0 -6 157 -55 177 -55 29 0 8 9 -80 35 -93 27 -97 28 -97
20z"/>
<path d="M860 1211 c0 -9 170 -64 177 -57 3 3 0 8 -8 10 -8 2 -49 16 -91 29
-43 14 -78 22 -78 18z"/>
<path d="M939 1104 c52 -19 96 -32 99 -30 3 3 -1 8 -9 10 -8 3 -45 17 -83 31
-37 14 -76 25 -85 24 -9 0 26 -16 78 -35z"/>
<path d="M853 1064 c6 -7 174 -64 185 -64 15 1 -33 23 -100 46 -71 24 -97 29
-85 18z"/>
<path d="M520 1016 c69 -24 208 -69 310 -101 102 -32 191 -61 199 -63 9 -4 12
-1 7 6 -4 7 -33 19 -64 28 -58 16 -249 76 -442 140 -58 19 -112 34 -120 34 -8
-1 41 -20 110 -44z"/>
<path d="M400 983 c0 -5 116 -45 258 -91 296 -96 362 -115 369 -108 3 2 -15
10 -39 16 -23 7 -88 28 -143 47 -55 19 -125 41 -155 49 -30 8 -106 33 -168 54
-124 44 -122 43 -122 33z"/>
<path d="M865 980 c43 -18 166 -52 171 -48 6 6 -154 58 -176 57 -10 0 -8 -3 5
-9z"/>
<path d="M430 888 c54 -15 299 -95 447 -145 73 -24 140 -43 150 -41 10 2 -57
27 -147 56 -91 28 -226 72 -301 97 -75 25 -147 45 -160 44 -19 -1 -17 -3 11
-11z"/>
<path d="M403 823 c4 -6 35 -18 69 -27 62 -17 201 -62 430 -138 65 -22 123
-38 130 -36 12 4 -459 162 -560 188 -24 6 -50 14 -59 17 -10 4 -14 2 -10 -4z"/>
<path d="M400 746 c0 -3 33 -15 73 -27 39 -12 124 -39 187 -59 147 -49 351
-114 370 -118 10 -3 12 -1 5 6 -5 6 -71 29 -145 52 -74 23 -187 59 -250 80
-178 59 -240 76 -240 66z"/>
<path d="M470 644 c41 -14 143 -46 225 -73 83 -26 188 -60 235 -75 47 -15 91
-30 98 -33 6 -2 12 -1 12 4 0 5 -55 26 -122 47 -68 21 -168 53 -223 72 -135
45 -270 84 -286 83 -8 0 20 -12 61 -25z"/>
<path d="M405 592 c6 -5 55 -24 110 -41 55 -18 161 -51 235 -75 222 -72 280
-89 286 -83 3 3 -41 20 -98 37 -56 18 -148 47 -203 65 -113 38 -302 98 -325
103 -10 3 -12 1 -5 -6z"/>
<path d="M400 515 c0 -4 447 -150 552 -179 32 -9 65 -19 75 -23 12 -4 15 -3 8
5 -5 5 -44 20 -85 31 -41 12 -127 39 -190 60 -140 48 -343 111 -353 111 -4 0
-7 -2 -7 -5z"/>
<path d="M1830 1525 c-52 -18 -160 -56 -240 -85 -80 -28 -184 -65 -232 -82
l-88 -30 0 -274 c0 -151 2 -274 4 -274 4 0 63 20 286 100 80 28 172 60 205 71
33 11 86 30 118 41 l57 20 0 274 c0 151 -3 274 -7 273 -5 0 -51 -15 -103 -34z
m96 -243 c2 -179 -1 -254 -10 -260 -6 -5 -87 -35 -181 -67 -93 -32 -230 -80
-303 -106 -72 -27 -134 -49 -137 -49 -3 0 -4 117 -3 261 l3 261 110 40 c61 22
142 50 180 63 39 13 126 44 195 68 69 25 130 44 135 43 6 -2 11 -96 11 -254z"/>
<path d="M1810 893 c-279 -100 -408 -145 -465 -164 -66 -22 -101 -45 -50 -33
17 4 53 16 80 27 48 19 185 68 440 157 66 23 124 46 130 51 15 15 -2 10 -135
-38z"/>
<path d="M1800 810 c-231 -83 -393 -140 -455 -162 -66 -23 -71 -26 -63 -33 3
-3 36 6 74 21 38 14 112 41 164 59 282 99 416 148 425 156 15 15 -1 10 -145
-41z"/>
<path d="M1910 771 c-8 -5 -67 -27 -130 -49 -255 -90 -396 -140 -420 -150 -14
-6 -38 -15 -54 -21 -16 -7 -26 -14 -23 -17 3 -3 51 13 106 35 56 23 106 41
111 41 9 0 62 19 350 123 47 17 89 34 95 39 12 11 -16 10 -35 -1z"/>
<path d="M1910 690 c-9 -5 -74 -29 -145 -54 -303 -105 -470 -167 -480 -178 -7
-8 -5 -9 10 -3 11 4 81 29 155 55 114 41 282 100 468 167 23 8 42 17 42 19 0
7 -35 4 -50 -6z"/>
<path d="M1865 594 c-33 -14 -98 -38 -145 -54 -222 -75 -424 -150 -434 -161
-8 -9 -6 -10 9 -4 41 15 274 98 380 135 158 55 293 109 270 109 -11 -1 -47
-12 -80 -25z"/>
<path d="M1875 518 c-50 -20 -211 -78 -462 -166 -73 -25 -133 -50 -133 -55 0
-5 8 -6 18 -2 16 7 199 73 377 135 295 104 310 111 269 109 -10 0 -41 -9 -69
-21z"/>
</g>
</svg>